<?xml version="1.0" encoding="utf-8"?>
<!-- Generator: Adobe Illustrator 21.0.0, SVG Export Plug-In . SVG Version: 6.00 Build 0)  -->
<svg version="1.1" id="Layer_1" xmlns="http://www.w3.org/2000/svg" xmlns:xlink="http://www.w3.org/1999/xlink" x="0px" y="0px"
	 viewBox="0 0 216 38.1" enable-background="new 0 0 216 38.1" xml:space="preserve">
<g>
	<path fill="#FFFFFF" d="M61.5,24.5c-2.8,0-4.8-2.4-4.8-5.4V19c0-3,2-5.4,4.8-5.4c1.9,0,3.2,1,4.4,2.4l4.2-3.3
		c-1.8-2.5-4.4-4.2-8.5-4.2c-6.1,0-10.5,4.6-10.5,10.5v0.1c0,6.1,4.6,10.5,10.3,10.5c4.4,0,6.9-1.9,8.8-4.6L66,22
		C64.8,23.5,63.6,24.5,61.5,24.5z"/>
	<polygon fill="#FFFFFF" points="86.1,16.5 79,16.5 79,8.9 73.4,8.9 73.4,29.2 79,29.2 79,21.5 86.1,21.5 86.1,29.2 91.6,29.2 
		91.6,8.9 86.1,8.9 	"/>
	<path fill="#FFFFFF" d="M102,8.8l-8.5,20.4h5.8l1.4-3.7h7.7l1.4,3.7h5.9l-8.5-20.4H102z M102.4,21.2l2.3-5.7l2.2,5.7H102.4z"/>
	<path fill="#FFFFFF" d="M135.8,15.9L135.8,15.9c0-2.1-0.6-3.6-1.8-4.8c-1.3-1.4-3.5-2.2-6.5-2.2h-9.4v20.3h5.5V23h2.5l4,6.1h6.4
		l-4.8-7.1C134.2,21,135.8,19,135.8,15.9z M130.3,16.2c0,1.5-1.1,2.4-3,2.4h-3.7v-4.9h3.7C129.1,13.7,130.3,14.6,130.3,16.2
		L130.3,16.2z"/>
	<rect x="139.9" y="8.9" fill="#FFFFFF" width="5.5" height="20.3"/>
	<polygon fill="#FFFFFF" points="148.3,13.8 154.2,13.8 154.2,29.2 159.8,29.2 159.8,13.8 165.8,13.8 165.8,8.9 148.3,8.9 	"/>
	<rect x="168.6" y="8.9" fill="#FFFFFF" width="5.5" height="20.3"/>
	<polygon fill="#FFFFFF" points="183.5,21.2 193.1,21.2 193.1,16.8 183.5,16.8 183.5,13.7 194.1,13.7 194.1,8.9 178,8.9 178,29.2 
		194.2,29.2 194.2,24.4 183.5,24.4 	"/>
	<path fill="#FFFFFF" d="M207,16.5c-2.8-0.6-3.5-1-3.5-2v-0.1c0-0.8,0.7-1.3,2-1.3c1.8,0,3.8,0.7,5.6,2l2.8-4
		c-2.2-1.8-4.8-2.7-8.2-2.7c-4.8,0-7.7,2.7-7.7,6.5v0.1c0,4.1,3.3,5.4,7.5,6.3c2.7,0.7,3.4,1.1,3.4,2v0.1c0,0.9-0.8,1.4-2.3,1.4
		c-2.3,0-4.5-0.8-6.5-2.4l-3.1,3.7c2.5,2.2,5.8,3.4,9.4,3.4c4.9,0,8.1-2.5,8.1-6.6v-0.1C214.5,19.1,211.6,17.6,207,16.5z"/>
	<path fill="#FFFFFF" d="M10.5,8.5l-8.9,21h4.9L8.4,25H17l1.9,4.5h4.9l-8.9-21H10.5z M10.1,20.9l2.6-6.1l2.6,6.1H10.1z"/>
	<path fill="#FFFFFF" d="M32,18.6c0.4-0.2,0.6-0.3,0.7-0.3c0.1-0.1,0.4-0.2,0.7-0.5c1-0.8,1.6-2,1.6-3.7c0-1.4-0.5-2.6-1.4-3.7
		c-0.5-0.6-1.3-1-2.3-1.4c-1-0.3-2.2-0.5-3.6-0.5h-8v7.7l5.7,13.3h3.4c2.8,0,4.8-0.7,6-2c1-1.1,1.5-2.4,1.5-3.9
		c0-1.3-0.4-2.4-1.1-3.3C34.3,19.5,33.3,18.9,32,18.6z M24.3,12.5h2.2c1.4,0,2.3,0.2,2.9,0.5c0.6,0.3,0.9,0.9,0.9,1.8
		c0,0.9-0.3,1.5-0.9,1.8c-0.6,0.3-1.6,0.4-2.9,0.4h-2.2V12.5z M30.5,25.1c-0.7,0.3-1.7,0.5-3,0.5h-3.2v-4.8H27
		c1.5,0,2.7,0.2,3.4,0.5c0.7,0.3,1,1,1,1.9C31.5,24.1,31.1,24.7,30.5,25.1z"/>
	<rect x="43" fill="#FFFFFF" width="1.2" height="38.1"/>
</g>
</svg>
