<?xml version="1.0" encoding="utf-8"?>
<!-- Generator: Adobe Illustrator 21.0.0, SVG Export Plug-In . SVG Version: 6.00 Build 0)  -->
<svg version="1.1" id="Layer_1" xmlns="http://www.w3.org/2000/svg" xmlns:xlink="http://www.w3.org/1999/xlink" x="0px" y="0px"
	 viewBox="0 0 944 527" enable-background="new 0 0 944 527" xml:space="preserve">
<g>
	<g>
		<g>
			<path fill="#F4F4F4" d="M860,30.4C860,16,848.3,4.3,834,4.3H109.6C95.2,4.3,83.5,16,83.5,30.4v8.1H860V30.4z"/>
		</g>
	</g>
	<path fill="#F4F4F4" d="M2.3,510.2C17.9,522.6,42.8,522,42.8,522h864.3c17.9,0,34.1-11.8,34.1-11.8H2.3z"/>
	<g>
		<polygon fill="#F4F4F4" points="859.7,492.6 860,492.6 860,468.2 83.5,468.2 83.5,492.6 84.3,492.6 		"/>
	</g>
	<g>
		<path fill="#FFFFFF" d="M941,492.6H543.7c0,0,0,0.1,0,0.2c-0.3,1.3-2.9,8.5-19.4,8.5h-0.1h-0.3h-0.1h-50.6h-0.1h-2.7h-0.1h-50.6
			h-0.1h-0.2h-0.1c-16.6,0-19.1-7.2-19.5-8.5c0-0.1,0-0.2,0-0.2H2.5c-0.6,0-1.1,0.5-1.1,1.1v15.5c0,0.6,0.5,1.1,1.1,1.1H941
			c0.6,0,1.1-0.5,1.1-1.1v-15.5C942.1,493.1,941.6,492.6,941,492.6z"/>
		<path fill="#EEEFF1" d="M419.3,501.3L419.3,501.3h0.3h0.1h50.6h0.1h2.7h0.1h50.6h0.1h0.3c16.6,0,19.1-7.2,19.5-8.5
			c0-0.1,0-0.2,0-0.2h-0.3h-69.8h-3.5h-69.8h-0.2h-0.1c0,0,0,0.1,0,0.2C400.1,494.1,402.7,501.3,419.3,501.3z"/>
	</g>
	<g>
		<polygon fill="#DEF0C7" points="860,38.4 860,38.4 83.5,38.4 83.5,38.4 83.5,468.2 83.5,468.2 860,468.2 860,468.2 		"/>
		<g>
			<g>
				<polygon fill="#9ACA58" points="831,438.5 796,438.5 796,437.7 830.2,437.7 830.2,403.5 831,403.5 				"/>
			</g>
			<g>
				<polygon fill="#9ACA58" points="114.7,104.6 114,104.6 114,69.6 148.9,69.6 148.9,70.4 114.7,70.4 				"/>
			</g>
		</g>
	</g>
</g>
</svg>
