<?xml version="1.0" encoding="utf-8"?>
<!-- Generator: Adobe Illustrator 21.0.0, SVG Export Plug-In . SVG Version: 6.00 Build 0)  -->
<svg version="1.1" id="Layer_1" xmlns="http://www.w3.org/2000/svg" xmlns:xlink="http://www.w3.org/1999/xlink" x="0px" y="0px"
	 viewBox="0 0 174 158" enable-background="new 0 0 174 158" xml:space="preserve">
<g>
	<path fill="#3B4A91" d="M95.5,1.5c-42.6,0-77.3,34.7-77.3,77.3c0,6.7,0.9,13.3,2.5,19.5l-5.4,3.1l2,3.5l4.6-2.6
		c1,3.1,2.1,6,3.5,8.9l-3.4,1.9l-4.7-8.2l-8.2,4.6l4.7,8.2l-6.1,3.4l4.7,8.2l-2.1,1.2l4.7,8.2l8.2-4.6l-4.7-8.2l8.2-4.6l4.7,8.2
		l-8.2,4.6l2,3.5l13-7.4C52.2,146.1,72.7,156,95.5,156c42.6,0,77.3-34.7,77.3-77.3C172.8,36.1,138.1,1.5,95.5,1.5z M95.5,150
		c-22,0-41.8-10.1-54.8-25.8l7-4L43,112l-7.9,4.5c-1.7-2.7-3.2-5.4-4.5-8.3l7.7-4.4L43,112l8.2-4.6l4.7,8.2l-8.2,4.6l2,3.5L107,91.3
		l11.5,20.3l29-64.1l-69.9-8.1l11.5,20.3L26.2,95.2c-1.2-5.3-1.9-10.8-1.9-16.4c0-39.3,32-71.3,71.3-71.3c39.3,0,71.3,32,71.3,71.3
		C166.8,118,134.8,150,95.5,150z M51.2,107.4l-4.7-8.2l-8.2,4.6l-4.7-8.2l8.2-4.6l4.7,8.2l8.2-4.6l4.7,8.2L51.2,107.4z"/>
	
		<rect x="1.5" y="107.4" transform="matrix(0.8703 -0.4924 0.4924 0.8703 -53.2427 16.6738)" fill="#3B4A91" width="7" height="4.1"/>
</g>
</svg>
