<?xml version="1.0" encoding="utf-8"?>
<!-- Generator: Adobe Illustrator 21.0.0, SVG Export Plug-In . SVG Version: 6.00 Build 0)  -->
<svg version="1.1" id="Layer_1" xmlns="http://www.w3.org/2000/svg" xmlns:xlink="http://www.w3.org/1999/xlink" x="0px" y="0px"
	 viewBox="0 0 158 174" enable-background="new 0 0 158 174" xml:space="preserve">
<g>
	<path fill="#231F20" d="M69.6,163.5c0-4.7,3.8-8.5,8.5-8.5c4.7,0,8.6,3.8,8.6,8.5c0,0.6-0.1,1.1-0.2,1.6c13.5-1.6,25.8-7,36-15.1
		l-0.1-111.4c0,0,0,0,0,0v-7.5c0,0,0,0,0,0l0-16.7c0-7.2-5.8-13.1-13.1-13.1h-2H46.7c-7.2,0-13.1,5.8-13.1,13l0.1,135.7
		c10.1,8.1,22.5,13.4,36,15C69.6,164.6,69.6,164.1,69.6,163.5z M69.4,15.9c0-0.3,0.3-0.6,0.6-0.6h16c0.3,0,0.6,0.3,0.6,0.6
		c0,0.3-0.3,0.6-0.6,0.6H70C69.6,16.6,69.4,16.3,69.4,15.9z"/>
	<path fill="none" d="M149.3,94.4c0-22.5-10.5-42.7-26.9-55.7l0.1,111.4C138.8,137,149.3,116.9,149.3,94.4z"/>
	<path fill="none" d="M86,16.6c0.3,0,0.6-0.3,0.6-0.6c0-0.3-0.3-0.6-0.6-0.6H70c-0.3,0-0.6,0.3-0.6,0.6c0,0.3,0.3,0.6,0.6,0.6H86z"
		/>
	<path fill="#FAB161" d="M122.3,38.6C122.3,38.7,122.4,38.7,122.3,38.6l0-7.5c0,0,0,0,0,0V38.6z"/>
</g>
<g>
	<rect x="37.4" y="27.8" fill="#009BDD" width="81.2" height="122.7"/>
	<rect x="37.4" y="49.2" fill="#FFFFFF" width="81.2" height="72.6"/>
	<g>
		<path fill="#9ACA58" d="M94.9,113.8H62.5c-0.6,0-1.1-0.5-1.1-1.1v-6.8c0-0.6,0.5-1.1,1.1-1.1h32.4c0.6,0,1.1,0.5,1.1,1.1v6.8
			C96,113.3,95.5,113.8,94.9,113.8"/>
		<path fill="#EBECEF" d="M58,88.9H43.9c-0.5,0-0.9-0.5-0.9-1.1V81c0-0.6,0.4-1.1,0.9-1.1H58c0.5,0,0.9,0.5,0.9,1.1v6.8
			C58.9,88.4,58.5,88.9,58,88.9"/>
		<path fill="#EBECEF" d="M76.5,88.9H62.4c-0.5,0-0.9-0.5-0.9-1.1V81c0-0.6,0.4-1.1,0.9-1.1h14.1c0.5,0,0.9,0.5,0.9,1.1v6.8
			C77.4,88.4,77,88.9,76.5,88.9"/>
		<path fill="#EBECEF" d="M95.1,88.9H80.9c-0.5,0-0.9-0.5-0.9-1.1V81c0-0.6,0.4-1.1,0.9-1.1h14.1c0.5,0,0.9,0.5,0.9,1.1v6.8
			C96,88.4,95.6,88.9,95.1,88.9"/>
		<path fill="#EBECEF" d="M113.5,88.9H99.4c-0.5,0-0.9-0.5-0.9-1.1V81c0-0.6,0.4-1.1,0.9-1.1h14.1c0.5,0,0.9,0.5,0.9,1.1v6.8
			C114.5,88.4,114,88.9,113.5,88.9"/>
		<path fill="#EBECEF" d="M58,100.2H43.9c-0.5,0-0.9-0.5-0.9-1.1v-6.8c0-0.6,0.4-1.1,0.9-1.1H58c0.5,0,0.9,0.5,0.9,1.1v6.8
			C58.9,99.7,58.5,100.2,58,100.2"/>
		<path fill="#EBECEF" d="M76.5,100.2H62.4c-0.5,0-0.9-0.5-0.9-1.1v-6.8c0-0.6,0.4-1.1,0.9-1.1h14.1c0.5,0,0.9,0.5,0.9,1.1v6.8
			C77.4,99.7,77,100.2,76.5,100.2"/>
		<path fill="#EBECEF" d="M95.1,100.2H80.9c-0.5,0-0.9-0.5-0.9-1.1v-6.8c0-0.6,0.4-1.1,0.9-1.1h14.1c0.5,0,0.9,0.5,0.9,1.1v6.8
			C96,99.7,95.6,100.2,95.1,100.2"/>
		<path fill="#EBECEF" d="M113.5,100.2H99.4c-0.5,0-0.9-0.5-0.9-1.1v-6.8c0-0.6,0.4-1.1,0.9-1.1h14.1c0.5,0,0.9,0.5,0.9,1.1v6.8
			C114.5,99.7,114,100.2,113.5,100.2"/>
		<path fill="#C9CDD4" d="M81.2,57.1c0,2.1-1.7,3.7-3.7,3.7c-2.1,0-3.7-1.7-3.7-3.7c0-2.1,1.7-3.7,3.7-3.7
			C79.6,53.4,81.2,55.1,81.2,57.1z"/>
	</g>
	<rect x="43.1" y="71.4" fill="#009BDD" width="71.1" height="2.1"/>
	<rect x="43.1" y="64.8" fill="#C9CDD4" width="71.1" height="2.1"/>
	<rect x="83.9" y="56.8" fill="#009BDD" width="30.3" height="0.7"/>
</g>
<g>
	<path fill="#231F20" d="M78.1,157c-3.6,0-6.5,2.9-6.5,6.5c0,0.6,0.1,1.3,0.3,1.8c2.1,0.2,4.1,0.3,6.2,0.3c2.1,0,4.2-0.1,6.2-0.3
		c0.2-0.6,0.3-1.2,0.3-1.8C84.6,159.9,81.6,157,78.1,157z"/>
	<path fill="#C8CCD3" d="M71.8,165.4c-0.2-0.6-0.3-1.2-0.3-1.8c0-3.6,2.9-6.5,6.5-6.5c3.6,0,6.5,2.9,6.5,6.5c0,0.6-0.1,1.2-0.3,1.8
		c0.2,0,0.4,0,0.7-0.1c0.1-0.6,0.2-1.2,0.2-1.8c0-3.9-3.2-7.1-7.1-7.1s-7.1,3.2-7.1,7.1c0,0.6,0.1,1.2,0.2,1.8
		C71.4,165.3,71.6,165.4,71.8,165.4z"/>
	<path fill="#FAB161" d="M122.4,31.2l0,7.5c16.4,13.1,26.9,33.2,26.9,55.7c0,22.5-10.5,42.6-26.9,55.7c-10.1,8.1-22.5,13.5-36,15.1
		c-0.5,0.1-1,0.1-1.5,0.2c-0.2,0-0.4,0-0.7,0.1c-2.1,0.2-4.1,0.3-6.2,0.3c-2.1,0-4.2-0.1-6.2-0.3c-0.2,0-0.4,0-0.7-0.1
		c-0.5,0-1-0.1-1.4-0.1c-13.5-1.6-25.9-6.9-36-15C17.3,137.1,6.8,117,6.8,94.4c0-22.5,10.5-42.5,26.8-55.6v-7.5
		C13.8,45.3,0.8,68.4,0.8,94.4c0,26.1,13,49.2,32.9,63.2c11.8,8.3,26.1,13.4,41.5,14c0.9,0,1.9,0.1,2.8,0.1c1,0,1.9,0,2.9-0.1
		c15.4-0.6,29.7-5.7,41.5-14c19.8-14,32.9-37.1,32.9-63.2C155.3,68.3,142.3,45.2,122.4,31.2z"/>
</g>
</svg>
