<?xml version="1.0" encoding="utf-8"?>
<!-- Generator: Adobe Illustrator 21.0.0, SVG Export Plug-In . SVG Version: 6.00 Build 0)  -->
<svg version="1.1" id="Layer_1" xmlns="http://www.w3.org/2000/svg" xmlns:xlink="http://www.w3.org/1999/xlink" x="0px" y="0px"
	 viewBox="0 0 308.7 240.6" style="enable-background:new 0 0 308.7 240.6;" xml:space="preserve">
<style type="text/css">
	.st0{fill:#9BCB58;}
	.st1{fill:#666666;}
	.st2{fill:none;stroke:#666666;stroke-width:1.0923;stroke-linecap:round;stroke-linejoin:round;stroke-dasharray:0,2.1469;}
	.st3{fill:none;stroke:#666666;stroke-width:1.0923;stroke-linecap:round;stroke-linejoin:round;stroke-dasharray:0,2.2263;}
	.st4{fill:none;stroke:#666666;stroke-width:1.0923;stroke-linecap:round;stroke-linejoin:round;stroke-dasharray:0,2.409;}
	.st5{fill:none;stroke:#666666;stroke-width:1.0923;stroke-linecap:round;stroke-linejoin:round;stroke-dasharray:0,2.132;}
	.st6{fill:none;stroke:#666666;stroke-width:1.0923;stroke-linecap:round;stroke-linejoin:round;stroke-dasharray:0,2.0972;}
	.st7{fill:none;stroke:#666666;stroke-width:1.0923;stroke-linecap:round;stroke-linejoin:round;}
	.st8{fill:none;stroke:#666666;stroke-width:1.0923;stroke-linecap:round;stroke-linejoin:round;stroke-dasharray:0,2.2889;}
	.st9{fill:none;stroke:#666666;stroke-width:1.0923;stroke-linecap:round;stroke-linejoin:round;stroke-dasharray:0,2.2144;}
	.st10{fill:none;stroke:#666666;stroke-width:1.0923;stroke-linecap:round;stroke-linejoin:round;stroke-dasharray:0,2.1161;}
	.st11{fill:none;stroke:#666666;stroke-width:1.0923;stroke-linecap:round;stroke-linejoin:round;stroke-dasharray:0,2.1677;}
	.st12{fill:none;stroke:#666666;stroke-width:1.0923;stroke-linecap:round;stroke-linejoin:round;stroke-dasharray:0,2.1548;}
	.st13{fill:none;stroke:#666666;stroke-width:1.0923;stroke-linecap:round;stroke-linejoin:round;stroke-dasharray:0,2.0376;}
	.st14{fill:none;stroke:#666666;stroke-width:1.0923;stroke-linecap:round;stroke-linejoin:round;stroke-dasharray:0,2.2928;}
	.st15{fill:none;stroke:#666666;stroke-width:1.0923;stroke-linecap:round;stroke-linejoin:round;stroke-dasharray:0,2.1608;}
	.st16{fill:none;stroke:#666666;stroke-width:1.0923;stroke-linecap:round;stroke-linejoin:round;stroke-dasharray:0,2.0148;}
	.st17{fill:none;stroke:#666666;stroke-width:1.0923;stroke-linecap:round;stroke-linejoin:round;stroke-dasharray:0,2.1925;}
	.st18{fill:none;stroke:#666666;stroke-width:1.0923;stroke-linecap:round;stroke-linejoin:round;stroke-dasharray:0,1.987;}
	.st19{fill:none;stroke:#666666;stroke-width:1.0923;stroke-linecap:round;stroke-linejoin:round;stroke-dasharray:0,1.9731;}
	.st20{fill:none;stroke:#666666;stroke-width:1.0923;stroke-linecap:round;stroke-linejoin:round;stroke-dasharray:0,2.0515;}
	.st21{fill:none;stroke:#666666;stroke-width:1.0923;stroke-linecap:round;stroke-linejoin:round;stroke-dasharray:0,2.1687;}
	.st22{fill:none;stroke:#666666;stroke-width:1.0923;stroke-linecap:round;stroke-linejoin:round;stroke-dasharray:0,2.1042;}
	.st23{fill:none;stroke:#666666;stroke-width:1.0923;stroke-linecap:round;stroke-linejoin:round;stroke-dasharray:0,2.0783;}
	.st24{fill:none;stroke:#666666;stroke-width:1.0923;stroke-linecap:round;stroke-linejoin:round;stroke-dasharray:0,2.2114;}
	.st25{fill:none;stroke:#666666;stroke-width:1.0923;stroke-linecap:round;stroke-linejoin:round;stroke-dasharray:0,2.0714;}
	.st26{fill:none;stroke:#666666;stroke-width:1.0923;stroke-linecap:round;stroke-linejoin:round;stroke-dasharray:0,2.0287;}
	.st27{fill:none;stroke:#666666;stroke-width:1.0923;stroke-linecap:round;stroke-linejoin:round;stroke-dasharray:0,2.1965;}
	.st28{fill:none;stroke:#666666;stroke-width:1.0923;stroke-linecap:round;stroke-linejoin:round;stroke-dasharray:0,2.3028;}
	.st29{fill:none;stroke:#666666;stroke-width:1.0923;stroke-linecap:round;stroke-linejoin:round;stroke-dasharray:0,2.1201;}
	.st30{fill:none;stroke:#666666;stroke-width:1.0923;stroke-linecap:round;stroke-linejoin:round;stroke-dasharray:0,2.122;}
	.st31{fill:none;stroke:#666666;stroke-width:1.0923;stroke-linecap:round;stroke-linejoin:round;stroke-dasharray:0,2.2541;}
	.st32{fill:none;stroke:#666666;stroke-width:1.0923;stroke-linecap:round;stroke-linejoin:round;stroke-dasharray:0,2.1071;}
	.st33{fill:none;stroke:#666666;stroke-width:1.0923;stroke-linecap:round;stroke-linejoin:round;stroke-dasharray:0,2.2879;}
</style>
<g>
	<g>
		<g>
			<g>
				<rect y="187.5" class="st0" width="122.7" height="1.8"/>
				<rect x="182.4" y="187.5" class="st0" width="124.2" height="1.8"/>
				<path class="st0" d="M169.2,180.6c-0.9-0.7-1.9-1.1-3.2-1.1h-4.1l-2.4,16.4h4.7c1.2,0,2.3-0.4,3.3-1c1-0.6,1.9-1.6,2.5-2.8
					c0.7-1.2,1.1-2.5,1.2-4l0.1-0.7c0.1-1.3,0-2.5-0.3-3.7C170.8,182.4,170.1,181.4,169.2,180.6z M168.1,186.7
					c-0.1,2.1-0.5,3.7-1.2,4.7s-1.6,1.5-2.7,1.5h-1l1.5-10.3h1.3c0.7,0,1.3,0.4,1.6,1c0.4,0.6,0.5,1.5,0.5,2.7L168.1,186.7z"/>
				<polygon class="st0" points="156.6,179.5 155.1,189.9 151.8,179.5 148.6,179.5 146.2,195.9 149.4,195.9 151,185.6 154.3,195.9 
					157.4,195.9 159.9,179.5 				"/>
				<path class="st0" d="M139.4,179.5l-7.4,16.4h3.6l1.2-3.1h4.4l0.3,3.1h3.4l-2.4-16.4H139.4z M138.1,189.8l2.3-5.7l0.6,5.7H138.1z
					"/>
			</g>
		</g>
	</g>
	<g>
		<path class="st1" d="M18.1,140.3c1.9,0,3.6,0.3,5.1,0.9c1.4,0.6,3,1.6,4.6,3.2l3.6-3.9c-3.5-3.8-7.9-5.7-13.1-5.7
			c-5.2,0-9.6,1.6-13,4.9s-5.2,7.4-5.2,12.2c0,4.9,1.7,9,5.1,12.2c3.4,3.2,7.6,4.8,12.7,4.8c5.1,0,9.5-1.9,13-5.8l-3.7-3.7
			c-1.5,1.4-3,2.4-4.5,3.1c-1.4,0.6-3.1,1-5.1,1c-3.2,0-5.9-1.1-8.2-3.4c-2.3-2.2-3.5-5-3.5-8.4c0-3.3,1.2-6.1,3.5-8.2
			C11.8,141.4,14.7,140.3,18.1,140.3z"/>
		<polygon class="st1" points="103.1,160.3 83.5,135.7 77.7,135.7 77.7,168.6 83.5,168.6 83.5,144.6 102.6,168.6 108.8,168.6 
			108.8,135.7 103.1,135.7 		"/>
		<polygon class="st1" points="115,140.8 125.3,140.8 125.3,168.6 131,168.6 131,140.8 141.2,140.8 141.2,135.7 115,135.7 		"/>
		<path class="st1" d="M174.4,146.4c0-3.7-1.1-6.5-3.3-8.1c-2.2-1.7-5.9-2.5-11.1-2.5h-12.6v32.9h5.7v-11.2h7.5l8.1,11.1h7.3
			l-8.9-12C172,155.2,174.4,151.8,174.4,146.4z M160.3,152.5h-7.1v-11.8h7.3c3.1,0,5.2,0.4,6.4,1.2c1.2,0.8,1.8,2.3,1.8,4.4
			c0,2.2-0.6,3.7-1.7,4.7C165.7,152,163.5,152.5,160.3,152.5z"/>
		<path class="st1" d="M192.9,135.7L178,168.6h6.1l3.4-7.5h16.9l3.4,7.5h6.1L199,135.7H192.9z M189.8,156l6.1-13.6L202,156H189.8z"
			/>
		<path class="st1" d="M234.4,140.3c1.9,0,3.6,0.3,5.1,0.9c1.4,0.6,3,1.6,4.6,3.2l3.6-3.9c-3.5-3.8-7.9-5.7-13.1-5.7
			s-9.6,1.6-13,4.9s-5.2,7.4-5.2,12.2c0,4.9,1.7,9,5.1,12.2c3.4,3.2,7.6,4.8,12.7,4.8s9.5-1.9,13-5.8l-3.7-3.7
			c-1.5,1.4-3,2.4-4.5,3.1c-1.4,0.6-3.1,1-5.1,1c-3.2,0-5.9-1.1-8.2-3.4c-2.3-2.2-3.5-5-3.5-8.4c0-3.3,1.2-6.1,3.5-8.2
			C228.1,141.4,231,140.3,234.4,140.3z"/>
		<polygon class="st1" points="251,140.8 261.2,140.8 261.2,168.6 267,168.6 267,140.8 277.2,140.8 277.2,135.7 251,135.7 		"/>
		<path class="st1" d="M304.2,152.8c-1.8-1.5-4.4-2.6-7.8-3.4c-3.5-0.8-5.7-1.6-6.8-2.3c-1.1-0.7-1.6-1.7-1.6-3.1
			c0-1.3,0.5-2.3,1.6-3s2.4-1,4.1-1c1.7,0,3.3,0.3,5.1,0.8c1.7,0.6,3.1,1.3,4.1,2.2l3-4.2c-1.5-1.3-3.4-2.2-5.5-2.9
			c-2.1-0.7-4.3-1-6.4-1c-3.4,0-6.2,0.8-8.4,2.5c-2.3,1.7-3.4,4-3.4,7s1,5.3,3,6.8c1,0.8,2.1,1.4,3.4,1.9c1.3,0.5,3.2,1,5.7,1.6
			c2.5,0.6,4.2,1.2,5.3,1.9c1,0.7,1.5,1.7,1.5,3c0,1.3-0.5,2.3-1.6,3.1s-2.5,1.2-4.4,1.2c-3.7,0-7.2-1.4-10.6-4.3l-3.6,4.2
			c4.1,3.5,8.8,5.3,14.1,5.3c3.6,0,6.5-0.9,8.8-2.7c2.2-1.8,3.3-4.1,3.3-7C306.8,156.4,305.9,154.2,304.2,152.8z"/>
		<path class="st1" d="M68,145c-1.5-3.1-3.6-5.6-6.6-7.3c-3.5-2-7.3-2.6-11.3-2.6c-0.1,0-0.1,0-0.2,0c-1.5,0.4-3,0.9-4.4,1.7
			c-2.7,1.4-4.8,3.5-6.1,6.2c-1.2,2.4-1.6,4.9-1.8,7.5c-0.2,2.5,0,5.1,0.5,7.6c0.4,2.2,1.1,4.3,2.3,6.3c1,1.6,2.3,2.9,4,3.7
			c1.4,0.6,3,0.8,4.5,0.8c1-0.1,2-0.1,3-0.2c2.2-0.2,4.3-0.5,6.3-1.2c4-1.3,7.2-3.4,9.5-6.9c1.1-1.7,1.9-3.6,2-5.6
			c0.1-1.2,0-2.4-0.1-3.6C69.5,149.1,68.9,147,68,145z M66.9,154.2c-0.1,1.7-0.8,3.3-1.8,4.6c-2.1,2.7-4.7,4.5-7.9,5.7
			c-1.7,0.6-3.5,0.9-5.3,1c-1.7,0.1-3.4,0-5.1-0.6c-2.8-0.9-4.6-2.9-5.7-5.6c-0.8-2-1.1-4-1-5.9c-0.1-2.5,0.2-4.8,0.9-7
			c0.7-2,1.6-3.9,3.2-5.4c1.5-1.5,3.3-2.4,5.3-2.9c0.3-0.1,0.7-0.1,1-0.1c2.6,0,5.1,0.3,7.5,1.3c3.1,1.3,5.3,3.5,6.9,6.4
			C66.4,148.4,67.1,151.2,66.9,154.2z"/>
		<path class="st1" d="M61,144.5c-0.3,0-0.6,0-0.9,0.1c-1.2,0.3-2.3,0.9-3.3,1.6c-1.4,0.9-2.7,1.8-4,2.8c-0.1-0.1-0.2-0.1-0.3-0.2
			c-1.3-0.9-2.5-1.8-3.8-2.7c-0.6-0.4-1.3-0.8-2.1-0.9c-0.6-0.1-1.1,0.3-1.1,0.9c0,0.2,0.2,0.4,0.3,0.6c0.5,0.6,1.1,1.2,1.6,1.8
			c0.9,0.9,1.8,1.9,2.8,2.9c-0.1,0.1-0.2,0.1-0.3,0.2c-1,1-2,1.9-3,2.9c-0.7,0.7-1.3,1.5-1.9,2.3c-0.5,0.7-0.4,1.4-0.1,2.2
			c0.2,0.5,0.6,0.8,1.1,0.9c0.3,0.1,0.5,0,0.7-0.2c1.6-1.5,3.3-2.9,5-4.4c0.4-0.4,0.9-0.7,1.4-1.2c0.1,0.1,0.1,0.2,0.2,0.3
			c1.1,1,2.2,2.1,3.4,3.1c0.8,0.6,1.6,1.2,2.4,1.7c0.6,0.4,1.4,0.2,1.8-0.2c0.4-0.5,0.7-1.1,0.2-1.8c-0.1-0.2-0.2-0.3-0.3-0.5
			c-1.1-1.5-2.5-2.8-3.8-4c-0.3-0.3-0.6-0.6-0.9-0.9c0,0,0.1-0.1,0.2-0.2c1.1-0.9,2.3-1.8,3.4-2.8c0.8-0.7,1.5-1.5,2.3-2.2
			c0.4-0.4,0.3-0.8,0.1-1.2C61.7,144.7,61.4,144.5,61,144.5z"/>
	</g>
	<line class="st2" x1="19" y1="220.6" x2="9.3" y2="220.6"/>
	<line class="st3" x1="8.2" y1="218.4" x2="8.2" y2="208.4"/>
	<line class="st4" x1="5.8" y1="207.3" x2="2.2" y2="207.3"/>
	<line class="st5" x1="1" y1="209.4" x2="1" y2="238.2"/>
	<line class="st4" x1="3.4" y1="239.3" x2="7" y2="239.3"/>
	<line class="st6" x1="8.2" y1="237.2" x2="8.2" y2="227.7"/>
	<line class="st2" x1="10.4" y1="226.7" x2="20" y2="226.7"/>
	<line class="st6" x1="21.1" y1="228.8" x2="21.1" y2="238.2"/>
	<line class="st4" x1="23.5" y1="239.3" x2="27.1" y2="239.3"/>
	<line class="st5" x1="28.3" y1="237.1" x2="28.3" y2="208.3"/>
	<line class="st4" x1="25.9" y1="207.3" x2="22.3" y2="207.3"/>
	<line class="st3" x1="21.1" y1="209.5" x2="21.1" y2="219.5"/>
	<path class="st7" d="M21.1,220.6L21.1,220.6 M21.1,207.3L21.1,207.3 M28.3,207.3L28.3,207.3 M28.3,239.3L28.3,239.3 M21.1,239.3
		L21.1,239.3 M21.1,226.7L21.1,226.7 M8.2,226.7L8.2,226.7 M8.2,239.3L8.2,239.3 M1,239.3L1,239.3 M1,207.3L1,207.3 M8.2,207.3
		L8.2,207.3 M8.2,220.6L8.2,220.6"/>
	<line class="st4" x1="38.7" y1="239.3" x2="42.3" y2="239.3"/>
	<line class="st5" x1="43.5" y1="237.1" x2="43.5" y2="208.3"/>
	<line class="st4" x1="41.1" y1="207.3" x2="37.5" y2="207.3"/>
	<line class="st5" x1="36.3" y1="209.4" x2="36.3" y2="238.2"/>
	<path class="st7" d="M36.3,239.3L36.3,239.3 M36.3,207.3L36.3,207.3 M43.5,207.3L43.5,207.3 M43.5,239.3L43.5,239.3"/>
	<line class="st8" x1="60.7" y1="207.3" x2="52.6" y2="207.3"/>
	<line class="st5" x1="51.5" y1="209.4" x2="51.5" y2="238.2"/>
	<line class="st9" x1="53.7" y1="239.3" x2="61.5" y2="239.3"/>
	<path class="st10" d="M64.7,239.2c4.6-0.3,8.3-1.5,10.9-3.6"/>
	<path class="st11" d="M77.8,233.3c1.9-2.4,2.9-5.5,3.1-9.1"/>
	<path class="st12" d="M80.8,221c-0.4-3.5-1.6-6.5-3.8-8.7"/>
	<path class="st13" d="M74.6,210.2c-2.7-1.8-6.3-2.8-10.7-2.9"/>
	<path class="st7" d="M62.9,207.3L62.9,207.3 M76.2,211.5L76.2,211.5 M80.9,223.1L80.9,223.1 M76.4,234.9L76.4,234.9 M62.6,239.3
		L62.6,239.3 M51.5,239.3L51.5,239.3 M51.5,207.3L51.5,207.3"/>
	<line class="st14" x1="61" y1="232.9" x2="59.9" y2="232.9"/>
	<line class="st15" x1="58.7" y1="230.8" x2="58.7" y2="214.6"/>
	<line class="st16" x1="60.7" y1="213.5" x2="61.7" y2="213.5"/>
	<path class="st17" d="M64.9,213.6c2.1,0.2,3.8,0.8,5.1,1.7"/>
	<path class="st18" d="M72.2,217.6c0.8,1.3,1.3,2.9,1.4,4.7"/>
	<path class="st19" d="M73.5,225.3c-0.3,1.8-0.9,3.3-1.9,4.5"/>
	<path class="st20" d="M69.3,231.7c-1.4,0.7-3,1.1-4.9,1.3"/>
	<path class="st7" d="M63.3,232.9L63.3,232.9 M70.9,230.5L70.9,230.5 M73.6,223.3L73.6,223.3 M70.9,216L70.9,216 M62.8,213.5
		L62.8,213.5 M58.7,213.5L58.7,213.5 M58.7,232.9L58.7,232.9"/>
	<line class="st8" x1="96.3" y1="207.3" x2="88.3" y2="207.3"/>
	<line class="st5" x1="87.1" y1="209.4" x2="87.1" y2="238.2"/>
	<line class="st9" x1="89.3" y1="239.3" x2="97.1" y2="239.3"/>
	<path class="st10" d="M100.3,239.2c4.6-0.3,8.3-1.5,10.9-3.6"/>
	<path class="st11" d="M113.4,233.3c1.9-2.4,2.9-5.5,3.1-9.1"/>
	<path class="st12" d="M116.4,221c-0.4-3.5-1.6-6.5-3.8-8.7"/>
	<path class="st13" d="M110.2,210.2c-2.7-1.8-6.3-2.8-10.7-2.9"/>
	<path class="st7" d="M98.6,207.3L98.6,207.3 M111.9,211.5L111.9,211.5 M116.5,223.1L116.5,223.1 M112,234.9L112,234.9 M98.2,239.3
		L98.2,239.3 M87.1,239.3L87.1,239.3 M87.1,207.3L87.1,207.3"/>
	<line class="st14" x1="96.6" y1="232.9" x2="95.5" y2="232.9"/>
	<line class="st15" x1="94.3" y1="230.8" x2="94.3" y2="214.6"/>
	<line class="st16" x1="96.4" y1="213.5" x2="97.4" y2="213.5"/>
	<path class="st17" d="M100.6,213.6c2.1,0.2,3.8,0.8,5.1,1.7"/>
	<path class="st18" d="M107.8,217.6c0.8,1.3,1.3,2.9,1.4,4.7"/>
	<path class="st19" d="M109.1,225.3c-0.3,1.8-0.9,3.3-1.9,4.5"/>
	<path class="st20" d="M104.9,231.7c-1.4,0.7-3,1.1-4.9,1.3"/>
	<path class="st7" d="M98.9,232.9L98.9,232.9 M106.6,230.5L106.6,230.5 M109.2,223.3L109.2,223.3 M106.6,216L106.6,216 M98.4,213.5
		L98.4,213.5 M94.3,213.5L94.3,213.5 M94.3,232.9L94.3,232.9"/>
	<line class="st5" x1="122.7" y1="209.4" x2="122.7" y2="238.2"/>
	<line class="st21" x1="124.9" y1="239.3" x2="145.5" y2="239.3"/>
	<line class="st22" x1="146.6" y1="237.2" x2="146.6" y2="234"/>
	<line class="st23" x1="144.5" y1="232.9" x2="131" y2="232.9"/>
	<line class="st24" x1="130" y1="230.7" x2="130" y2="227.4"/>
	<line class="st25" x1="132" y1="226.3" x2="143.4" y2="226.3"/>
	<line class="st26" x1="144.5" y1="224.3" x2="144.5" y2="221.2"/>
	<line class="st25" x1="142.4" y1="220.2" x2="131" y2="220.2"/>
	<line class="st27" x1="130" y1="218" x2="130" y2="214.7"/>
	<line class="st28" x1="132.3" y1="213.6" x2="144.9" y2="213.6"/>
	<line class="st29" x1="146.1" y1="211.5" x2="146.1" y2="208.3"/>
	<line class="st30" x1="144" y1="207.3" x2="123.8" y2="207.3"/>
	<path class="st7" d="M122.7,207.3L122.7,207.3 M146.1,207.3L146.1,207.3 M146.1,213.6L146.1,213.6 M130,213.6L130,213.6 M130,220.2
		L130,220.2 M144.5,220.2L144.5,220.2 M144.5,226.3L144.5,226.3 M130,226.3L130,226.3 M130,232.9L130,232.9 M146.6,232.9
		L146.6,232.9 M146.6,239.3L146.6,239.3 M122.7,239.3L122.7,239.3"/>
	<line class="st11" x1="174.4" y1="226.2" x2="160.5" y2="208.1"/>
	<line class="st31" x1="157.5" y1="207.3" x2="154.2" y2="207.3"/>
	<line class="st5" x1="153" y1="209.4" x2="153" y2="238.2"/>
	<line class="st4" x1="155.4" y1="239.3" x2="159.1" y2="239.3"/>
	<line class="st3" x1="160.3" y1="237" x2="160.3" y2="220.3"/>
	<line class="st32" x1="161.6" y1="220.9" x2="175.1" y2="238.4"/>
	<line class="st4" x1="178.1" y1="239.3" x2="181.7" y2="239.3"/>
	<line class="st5" x1="182.9" y1="237.1" x2="182.9" y2="208.3"/>
	<line class="st4" x1="180.5" y1="207.3" x2="176.9" y2="207.3"/>
	<line class="st33" x1="175.7" y1="209.6" x2="175.7" y2="226.7"/>
	<path class="st7" d="M175.7,227.9L175.7,227.9 M175.7,207.3L175.7,207.3 M182.9,207.3L182.9,207.3 M182.9,239.3L182.9,239.3
		 M175.7,239.3L175.7,239.3 M160.3,219.2L160.3,219.2 M160.3,239.3L160.3,239.3 M153,239.3L153,239.3 M153,207.3L153,207.3
		 M159.8,207.3L159.8,207.3"/>
	<polygon class="st1" points="198.9,207.5 198.9,239.9 204.2,239.9 204.2,226.5 218.2,226.5 218.2,221.5 204.2,221.5 204.2,212.6 
		219.9,212.6 219.9,207.5 	"/>
	<polygon class="st1" points="226.1,207.5 226.1,239.9 248.8,239.9 248.8,234.7 231.4,234.7 231.4,226.1 246.5,226.1 246.5,221.2 
		231.4,221.2 231.4,212.6 248.2,212.6 248.2,207.5 	"/>
	<polygon class="st1" points="255.6,207.5 255.6,239.9 278.2,239.9 278.2,234.7 260.9,234.7 260.9,226.1 276,226.1 276,221.2 
		260.9,221.2 260.9,212.6 277.7,212.6 277.7,207.5 	"/>
	<g>
		<path class="st1" d="M294.5,211.8c-1.5,0-2.8,0.3-3.8,1c-1,0.6-1.5,1.6-1.5,2.9c0,1.3,0.5,2.3,1.5,3c1,0.7,3.1,1.4,6.3,2.2
			c3.2,0.8,5.7,1.9,7.3,3.4s2.5,3.6,2.5,6.4c0,2.8-1,5.1-3.1,6.9s-4.8,2.6-8.2,2.6c-4.9,0-9.3-1.7-13.1-5.2l3.3-4.1
			c3.2,2.8,6.5,4.3,9.9,4.3c1.7,0,3.1-0.4,4.1-1.1c1-0.8,1.5-1.8,1.5-3c0-1.3-0.5-2.2-1.4-2.9c-0.9-0.7-2.6-1.3-4.9-1.9
			c-2.3-0.6-4.1-1.1-5.3-1.6s-2.3-1.1-3.2-1.9c-1.9-1.5-2.8-3.7-2.8-6.7s1.1-5.3,3.2-6.9c2.1-1.6,4.7-2.4,7.9-2.4c2,0,4,0.3,6,1
			c2,0.7,3.7,1.6,5.1,2.9l-2.8,4.1c-0.9-0.9-2.2-1.6-3.8-2.1C297.7,212,296.1,211.8,294.5,211.8"/>
	</g>
</g>
<polygon class="st0" points="115.1,3.8 115.1,77.7 60.7,3.8 37.5,3.8 37.5,118.5 62.3,118.5 62.3,46.7 115.1,118.5 139.8,118.5 
	139.8,3.8 "/>
<path class="st0" d="M260.4,102.7c-11.2,11.3-25,17-41.4,17s-30.2-5.6-41.4-17c-11.2-11.3-16.8-25.4-16.8-42.3
	c0-16.8,5.6-30.9,16.8-42.3c11.2-11.3,25-17,41.4-17s30.2,5.6,41.4,17c11.2,11.3,16.8,25.4,16.8,42.3
	C277.2,77.2,271.6,91.3,260.4,102.7 M251.9,60.5c0-10.3-3.2-18.9-9.5-26.2c-6.3-7.2-14.1-10.8-23.3-10.8c-9.2,0-17,3.6-23.3,10.8
	s-9.5,15.9-9.5,26.2s3.2,18.9,9.5,26c6.3,7.2,14.1,10.7,23.3,10.7c9.2,0,17-3.6,23.3-10.7S251.9,70.7,251.9,60.5"/>
</svg>
