<?xml version="1.0" encoding="utf-8"?>
<!-- Generator: Adobe Illustrator 21.0.0, SVG Export Plug-In . SVG Version: 6.00 Build 0)  -->
<svg version="1.1" id="Layer_1" xmlns="http://www.w3.org/2000/svg" xmlns:xlink="http://www.w3.org/1999/xlink" x="0px" y="0px"
	 viewBox="0 0 547.8 106.1" style="enable-background:new 0 0 547.8 106.1;" xml:space="preserve">
<style type="text/css">
	.st0{fill:#9BCB58;}
	.st1{fill:#666666;}
	.st2{fill:none;stroke:#666666;stroke-width:1.0923;stroke-linecap:round;stroke-linejoin:round;stroke-dasharray:0,2.1469;}
	.st3{fill:none;stroke:#666666;stroke-width:1.0923;stroke-linecap:round;stroke-linejoin:round;stroke-dasharray:0,2.2263;}
	.st4{fill:none;stroke:#666666;stroke-width:1.0923;stroke-linecap:round;stroke-linejoin:round;stroke-dasharray:0,2.409;}
	.st5{fill:none;stroke:#666666;stroke-width:1.0923;stroke-linecap:round;stroke-linejoin:round;stroke-dasharray:0,2.132;}
	.st6{fill:none;stroke:#666666;stroke-width:1.0923;stroke-linecap:round;stroke-linejoin:round;stroke-dasharray:0,2.0972;}
	.st7{fill:none;stroke:#666666;stroke-width:1.0923;stroke-linecap:round;stroke-linejoin:round;}
	.st8{fill:none;stroke:#666666;stroke-width:1.0923;stroke-linecap:round;stroke-linejoin:round;stroke-dasharray:0,2.2889;}
	.st9{fill:none;stroke:#666666;stroke-width:1.0923;stroke-linecap:round;stroke-linejoin:round;stroke-dasharray:0,2.2144;}
	.st10{fill:none;stroke:#666666;stroke-width:1.0923;stroke-linecap:round;stroke-linejoin:round;stroke-dasharray:0,2.1161;}
	.st11{fill:none;stroke:#666666;stroke-width:1.0923;stroke-linecap:round;stroke-linejoin:round;stroke-dasharray:0,2.1677;}
	.st12{fill:none;stroke:#666666;stroke-width:1.0923;stroke-linecap:round;stroke-linejoin:round;stroke-dasharray:0,2.1548;}
	.st13{fill:none;stroke:#666666;stroke-width:1.0923;stroke-linecap:round;stroke-linejoin:round;stroke-dasharray:0,2.0376;}
	.st14{fill:none;stroke:#666666;stroke-width:1.0923;stroke-linecap:round;stroke-linejoin:round;stroke-dasharray:0,2.2928;}
	.st15{fill:none;stroke:#666666;stroke-width:1.0923;stroke-linecap:round;stroke-linejoin:round;stroke-dasharray:0,2.1608;}
	.st16{fill:none;stroke:#666666;stroke-width:1.0923;stroke-linecap:round;stroke-linejoin:round;stroke-dasharray:0,2.0148;}
	.st17{fill:none;stroke:#666666;stroke-width:1.0923;stroke-linecap:round;stroke-linejoin:round;stroke-dasharray:0,2.1925;}
	.st18{fill:none;stroke:#666666;stroke-width:1.0923;stroke-linecap:round;stroke-linejoin:round;stroke-dasharray:0,1.987;}
	.st19{fill:none;stroke:#666666;stroke-width:1.0923;stroke-linecap:round;stroke-linejoin:round;stroke-dasharray:0,1.9731;}
	.st20{fill:none;stroke:#666666;stroke-width:1.0923;stroke-linecap:round;stroke-linejoin:round;stroke-dasharray:0,2.0515;}
	.st21{fill:none;stroke:#666666;stroke-width:1.0923;stroke-linecap:round;stroke-linejoin:round;stroke-dasharray:0,2.1687;}
	.st22{fill:none;stroke:#666666;stroke-width:1.0923;stroke-linecap:round;stroke-linejoin:round;stroke-dasharray:0,2.1042;}
	.st23{fill:none;stroke:#666666;stroke-width:1.0923;stroke-linecap:round;stroke-linejoin:round;stroke-dasharray:0,2.0783;}
	.st24{fill:none;stroke:#666666;stroke-width:1.0923;stroke-linecap:round;stroke-linejoin:round;stroke-dasharray:0,2.2114;}
	.st25{fill:none;stroke:#666666;stroke-width:1.0923;stroke-linecap:round;stroke-linejoin:round;stroke-dasharray:0,2.0714;}
	.st26{fill:none;stroke:#666666;stroke-width:1.0923;stroke-linecap:round;stroke-linejoin:round;stroke-dasharray:0,2.0287;}
	.st27{fill:none;stroke:#666666;stroke-width:1.0923;stroke-linecap:round;stroke-linejoin:round;stroke-dasharray:0,2.1965;}
	.st28{fill:none;stroke:#666666;stroke-width:1.0923;stroke-linecap:round;stroke-linejoin:round;stroke-dasharray:0,2.3028;}
	.st29{fill:none;stroke:#666666;stroke-width:1.0923;stroke-linecap:round;stroke-linejoin:round;stroke-dasharray:0,2.1201;}
	.st30{fill:none;stroke:#666666;stroke-width:1.0923;stroke-linecap:round;stroke-linejoin:round;stroke-dasharray:0,2.122;}
	.st31{fill:none;stroke:#666666;stroke-width:1.0923;stroke-linecap:round;stroke-linejoin:round;stroke-dasharray:0,2.2541;}
	.st32{fill:none;stroke:#666666;stroke-width:1.0923;stroke-linecap:round;stroke-linejoin:round;stroke-dasharray:0,2.1071;}
	.st33{fill:none;stroke:#666666;stroke-width:1.0923;stroke-linecap:round;stroke-linejoin:round;stroke-dasharray:0,2.2879;}
</style>
<g>
	<g>
		<g>
			<rect x="239.1" y="53" class="st0" width="130.7" height="1.8"/>
			<rect x="413.5" y="53" class="st0" width="132.2" height="1.8"/>
		</g>
		<g>
			<path class="st0" d="M390.4,55c-0.3,1.8-1.1,3.3-2.3,4.4s-2.8,1.7-4.6,1.7c-1.7,0-3.1-0.6-4.1-1.7s-1.3-2.6-1.1-4.3l0.4-2.6
				c0.3-1.8,1-3.3,2.3-4.4s2.8-1.7,4.6-1.7c1.7,0,3.1,0.6,4,1.7s1.3,2.6,1.1,4.3L390.4,55z M387.5,52.4c0.2-1.1,0-1.9-0.3-2.5
				s-1-0.9-1.9-0.9c-0.9,0-1.6,0.3-2.2,1s-1,1.5-1.1,2.5l-0.4,2.6c-0.2,1.1-0.1,1.9,0.3,2.5s1,0.9,1.9,0.9c0.8,0,1.5-0.3,2.1-1
				s1-1.5,1.1-2.5L387.5,52.4z"/>
			<path class="st0" d="M395.6,55.4l-0.8,5.4h-3.3l2.1-14.2h5c1.6,0,2.8,0.4,3.7,1.2s1.2,1.8,1,3.1c-0.1,0.8-0.4,1.4-0.9,1.9
				s-1.1,0.9-1.9,1.3c0.8,0.3,1.4,0.7,1.7,1.3s0.4,1.3,0.3,2.1l-0.1,0.9c-0.1,0.4-0.1,0.8,0,1.3s0.2,0.8,0.4,1l0,0.2h-3.4
				c-0.2-0.2-0.3-0.6-0.4-1.1s0-1,0.1-1.4l0.1-0.9c0.1-0.7,0-1.2-0.3-1.6s-0.8-0.5-1.5-0.5H395.6z M396,52.8h1.7
				c0.6,0,1.2-0.2,1.6-0.5s0.7-0.7,0.7-1.3c0.1-0.6,0-1.1-0.3-1.4s-0.8-0.5-1.5-0.5h-1.7L396,52.8z"/>
		</g>
	</g>
</g>
<g>
	<path class="st1" d="M257.2,5.8c1.9,0,3.6,0.3,5.1,0.9c1.4,0.6,3,1.6,4.6,3.2l3.6-3.9c-3.5-3.8-7.9-5.7-13.1-5.7
		c-5.2,0-9.6,1.6-13,4.9s-5.2,7.4-5.2,12.2c0,4.9,1.7,9,5.1,12.2c3.4,3.2,7.6,4.8,12.7,4.8c5.1,0,9.5-1.9,13-5.8l-3.7-3.7
		c-1.5,1.4-3,2.4-4.5,3.1c-1.4,0.6-3.1,1-5.1,1c-3.2,0-5.9-1.1-8.2-3.4c-2.3-2.2-3.5-5-3.5-8.4c0-3.3,1.2-6.1,3.5-8.2
		C250.9,6.9,253.8,5.8,257.2,5.8z"/>
	<polygon class="st1" points="342.2,25.8 322.6,1.2 316.8,1.2 316.8,34.1 322.6,34.1 322.6,10.1 341.7,34.1 347.9,34.1 347.9,1.2 
		342.2,1.2 	"/>
	<polygon class="st1" points="354.1,6.3 364.4,6.3 364.4,34.1 370.1,34.1 370.1,6.3 380.3,6.3 380.3,1.2 354.1,1.2 	"/>
	<path class="st1" d="M413.5,11.9c0-3.7-1.1-6.5-3.3-8.1c-2.2-1.7-5.9-2.5-11.1-2.5h-12.6v32.9h5.7V23h7.5l8.1,11.1h7.3l-8.9-12
		C411.1,20.7,413.5,17.3,413.5,11.9z M399.4,18h-7.1V6.2h7.3c3.1,0,5.2,0.4,6.4,1.2c1.2,0.8,1.8,2.3,1.8,4.4c0,2.2-0.6,3.7-1.7,4.7
		C404.8,17.5,402.6,18,399.4,18z"/>
	<path class="st1" d="M432,1.2l-14.9,32.9h6.1l3.4-7.5h16.9l3.4,7.5h6.1L438.1,1.2H432z M428.9,21.5L435,7.9l6.1,13.6H428.9z"/>
	<path class="st1" d="M473.5,5.8c1.9,0,3.6,0.3,5.1,0.9c1.4,0.6,3,1.6,4.6,3.2l3.6-3.9c-3.5-3.8-7.9-5.7-13.1-5.7s-9.6,1.6-13,4.9
		s-5.2,7.4-5.2,12.2c0,4.9,1.7,9,5.1,12.2s7.6,4.8,12.7,4.8s9.5-1.9,13-5.8l-3.7-3.7c-1.5,1.4-3,2.4-4.5,3.1c-1.4,0.6-3.1,1-5.1,1
		c-3.2,0-5.9-1.1-8.2-3.4c-2.3-2.2-3.5-5-3.5-8.4c0-3.3,1.2-6.1,3.5-8.2C467.2,6.9,470.1,5.8,473.5,5.8z"/>
	<polygon class="st1" points="490.1,6.3 500.3,6.3 500.3,34.1 506.1,34.1 506.1,6.3 516.3,6.3 516.3,1.2 490.1,1.2 	"/>
	<path class="st1" d="M543.3,18.3c-1.8-1.5-4.4-2.6-7.8-3.4c-3.5-0.8-5.7-1.6-6.8-2.3s-1.6-1.7-1.6-3.1c0-1.3,0.5-2.3,1.6-3
		s2.4-1,4.1-1c1.7,0,3.3,0.3,5.1,0.8c1.7,0.6,3.1,1.3,4.1,2.2l3-4.2c-1.5-1.3-3.4-2.2-5.5-2.9s-4.3-1-6.4-1c-3.4,0-6.2,0.8-8.4,2.5
		c-2.3,1.7-3.4,4-3.4,7s1,5.3,3,6.8c1,0.8,2.1,1.4,3.4,1.9c1.3,0.5,3.2,1,5.7,1.6s4.2,1.2,5.3,1.9c1,0.7,1.5,1.7,1.5,3
		s-0.5,2.3-1.6,3.1c-1.1,0.8-2.5,1.2-4.4,1.2c-3.7,0-7.2-1.4-10.6-4.3l-3.6,4.2c4.1,3.5,8.8,5.3,14.1,5.3c3.6,0,6.5-0.9,8.8-2.7
		c2.2-1.8,3.3-4.1,3.3-7C545.9,21.9,545,19.7,543.3,18.3z"/>
	<path class="st1" d="M307.1,10.5c-1.5-3.1-3.6-5.6-6.6-7.3c-3.5-2-7.3-2.6-11.3-2.6c-0.1,0-0.1,0-0.2,0c-1.5,0.4-3,0.9-4.4,1.7
		c-2.7,1.4-4.8,3.5-6.1,6.2c-1.2,2.4-1.6,4.9-1.8,7.5c-0.2,2.5,0,5.1,0.5,7.6c0.4,2.2,1.1,4.3,2.3,6.3c1,1.6,2.3,2.9,4,3.7
		c1.4,0.6,3,0.8,4.5,0.8c1-0.1,2-0.1,3-0.2c2.2-0.2,4.3-0.5,6.3-1.2c4-1.3,7.2-3.4,9.5-6.9c1.1-1.7,1.9-3.6,2-5.6
		c0.1-1.2,0-2.4-0.1-3.6C308.6,14.6,308,12.5,307.1,10.5z M306,19.7c-0.1,1.7-0.8,3.3-1.8,4.6c-2.1,2.7-4.7,4.5-7.9,5.7
		c-1.7,0.6-3.5,0.9-5.3,1c-1.7,0.1-3.4,0-5.1-0.6c-2.8-0.9-4.6-2.9-5.7-5.6c-0.8-2-1.1-4-1-5.9c-0.1-2.5,0.2-4.8,0.9-7
		c0.7-2,1.6-3.9,3.2-5.4c1.5-1.5,3.3-2.4,5.3-2.9c0.3-0.1,0.7-0.1,1-0.1c2.6,0,5.1,0.3,7.5,1.3c3.1,1.3,5.3,3.5,6.9,6.4
		C305.5,13.9,306.2,16.7,306,19.7z"/>
	<path class="st1" d="M300.1,10c-0.3,0-0.6,0-0.9,0.1c-1.2,0.3-2.3,0.9-3.3,1.6c-1.4,0.9-2.7,1.8-4,2.8c-0.1-0.1-0.2-0.1-0.3-0.2
		c-1.3-0.9-2.5-1.8-3.8-2.7c-0.6-0.4-1.3-0.8-2.1-0.9c-0.6-0.1-1.1,0.3-1.1,0.9c0,0.2,0.2,0.4,0.3,0.6c0.5,0.6,1.1,1.2,1.6,1.8
		c0.9,0.9,1.8,1.9,2.8,2.9c-0.1,0.1-0.2,0.1-0.3,0.2c-1,1-2,1.9-3,2.9c-0.7,0.7-1.3,1.5-1.9,2.3c-0.5,0.7-0.4,1.4-0.1,2.2
		c0.2,0.5,0.6,0.8,1.1,0.9c0.3,0.1,0.5,0,0.7-0.2c1.6-1.5,3.3-2.9,5-4.4c0.4-0.4,0.9-0.7,1.4-1.2c0.1,0.1,0.1,0.2,0.2,0.3
		c1.1,1,2.2,2.1,3.4,3.1c0.8,0.6,1.6,1.2,2.4,1.7c0.6,0.4,1.4,0.2,1.8-0.2c0.4-0.5,0.7-1.1,0.2-1.8c-0.1-0.2-0.2-0.3-0.3-0.5
		c-1.1-1.5-2.5-2.8-3.8-4c-0.3-0.3-0.6-0.6-0.9-0.9c0,0,0.1-0.1,0.2-0.2c1.1-0.9,2.3-1.8,3.4-2.8c0.8-0.7,1.5-1.5,2.3-2.2
		c0.4-0.4,0.3-0.8,0.1-1.2C300.8,10.2,300.5,10,300.1,10z"/>
</g>
<line class="st2" x1="258.1" y1="86.1" x2="248.4" y2="86.1"/>
<line class="st3" x1="247.3" y1="83.9" x2="247.3" y2="73.9"/>
<line class="st4" x1="244.9" y1="72.8" x2="241.3" y2="72.8"/>
<line class="st5" x1="240.1" y1="74.9" x2="240.1" y2="103.7"/>
<line class="st4" x1="242.5" y1="104.8" x2="246.1" y2="104.8"/>
<line class="st6" x1="247.3" y1="102.7" x2="247.3" y2="93.2"/>
<line class="st2" x1="249.5" y1="92.2" x2="259.1" y2="92.2"/>
<line class="st6" x1="260.2" y1="94.3" x2="260.2" y2="103.7"/>
<line class="st4" x1="262.6" y1="104.8" x2="266.2" y2="104.8"/>
<line class="st5" x1="267.4" y1="102.6" x2="267.4" y2="73.8"/>
<line class="st4" x1="265" y1="72.8" x2="261.4" y2="72.8"/>
<line class="st3" x1="260.2" y1="75" x2="260.2" y2="85"/>
<path class="st7" d="M260.2,86.1L260.2,86.1 M260.2,72.8L260.2,72.8 M267.4,72.8L267.4,72.8 M267.4,104.8L267.4,104.8 M260.2,104.8
	L260.2,104.8 M260.2,92.2L260.2,92.2 M247.3,92.2L247.3,92.2 M247.3,104.8L247.3,104.8 M240.1,104.8L240.1,104.8 M240.1,72.8
	L240.1,72.8 M247.3,72.8L247.3,72.8 M247.3,86.1L247.3,86.1"/>
<line class="st4" x1="277.8" y1="104.8" x2="281.4" y2="104.8"/>
<line class="st5" x1="282.6" y1="102.6" x2="282.6" y2="73.8"/>
<line class="st4" x1="280.2" y1="72.8" x2="276.6" y2="72.8"/>
<line class="st5" x1="275.4" y1="74.9" x2="275.4" y2="103.7"/>
<path class="st7" d="M275.4,104.8L275.4,104.8 M275.4,72.8L275.4,72.8 M282.6,72.8L282.6,72.8 M282.6,104.8L282.6,104.8"/>
<line class="st8" x1="299.8" y1="72.8" x2="291.7" y2="72.8"/>
<line class="st5" x1="290.6" y1="74.9" x2="290.6" y2="103.7"/>
<line class="st9" x1="292.8" y1="104.8" x2="300.6" y2="104.8"/>
<path class="st10" d="M303.8,104.7c4.6-0.3,8.3-1.5,10.9-3.6"/>
<path class="st11" d="M316.9,98.8c1.9-2.4,2.9-5.5,3.1-9.1"/>
<path class="st12" d="M319.9,86.5c-0.4-3.5-1.6-6.5-3.8-8.7"/>
<path class="st13" d="M313.7,75.7c-2.7-1.8-6.3-2.8-10.7-2.9"/>
<path class="st7" d="M302,72.8L302,72.8 M315.3,77L315.3,77 M320,88.6L320,88.6 M315.5,100.4L315.5,100.4 M301.7,104.8L301.7,104.8
	 M290.6,104.8L290.6,104.8 M290.6,72.8L290.6,72.8"/>
<line class="st14" x1="300.1" y1="98.4" x2="299" y2="98.4"/>
<line class="st15" x1="297.8" y1="96.3" x2="297.8" y2="80.1"/>
<line class="st16" x1="299.8" y1="79" x2="300.8" y2="79"/>
<path class="st17" d="M304,79.1c2.1,0.2,3.8,0.8,5.1,1.7"/>
<path class="st18" d="M311.3,83.1c0.8,1.3,1.3,2.9,1.4,4.7"/>
<path class="st19" d="M312.6,90.8c-0.3,1.8-0.9,3.3-1.9,4.5"/>
<path class="st20" d="M308.4,97.2c-1.4,0.7-3,1.1-4.9,1.3"/>
<path class="st7" d="M302.4,98.4L302.4,98.4 M310,96L310,96 M312.7,88.8L312.7,88.8 M310,81.5L310,81.5 M301.9,79L301.9,79
	 M297.8,79L297.8,79 M297.8,98.4L297.8,98.4"/>
<line class="st8" x1="335.4" y1="72.8" x2="327.4" y2="72.8"/>
<line class="st5" x1="326.2" y1="74.9" x2="326.2" y2="103.7"/>
<line class="st9" x1="328.4" y1="104.8" x2="336.2" y2="104.8"/>
<path class="st10" d="M339.4,104.7c4.6-0.3,8.3-1.5,10.9-3.6"/>
<path class="st11" d="M352.5,98.8c1.9-2.4,2.9-5.5,3.1-9.1"/>
<path class="st12" d="M355.5,86.5c-0.4-3.5-1.6-6.5-3.8-8.7"/>
<path class="st13" d="M349.3,75.7c-2.7-1.8-6.3-2.8-10.7-2.9"/>
<path class="st7" d="M337.7,72.8L337.7,72.8 M351,77L351,77 M355.6,88.6L355.6,88.6 M351.1,100.4L351.1,100.4 M337.3,104.8
	L337.3,104.8 M326.2,104.8L326.2,104.8 M326.2,72.8L326.2,72.8"/>
<line class="st14" x1="335.7" y1="98.4" x2="334.6" y2="98.4"/>
<line class="st15" x1="333.4" y1="96.3" x2="333.4" y2="80.1"/>
<line class="st16" x1="335.5" y1="79" x2="336.5" y2="79"/>
<path class="st17" d="M339.7,79.1c2.1,0.2,3.8,0.8,5.1,1.7"/>
<path class="st18" d="M346.9,83.1c0.8,1.3,1.3,2.9,1.4,4.7"/>
<path class="st19" d="M348.2,90.8c-0.3,1.8-0.9,3.3-1.9,4.5"/>
<path class="st20" d="M344,97.2c-1.4,0.7-3,1.1-4.9,1.3"/>
<path class="st7" d="M338,98.4L338,98.4 M345.7,96L345.7,96 M348.3,88.8L348.3,88.8 M345.7,81.5L345.7,81.5 M337.5,79L337.5,79
	 M333.4,79L333.4,79 M333.4,98.4L333.4,98.4"/>
<line class="st5" x1="361.8" y1="74.9" x2="361.8" y2="103.7"/>
<line class="st21" x1="364" y1="104.8" x2="384.6" y2="104.8"/>
<line class="st22" x1="385.7" y1="102.7" x2="385.7" y2="99.5"/>
<line class="st23" x1="383.6" y1="98.4" x2="370.1" y2="98.4"/>
<line class="st24" x1="369.1" y1="96.2" x2="369.1" y2="92.9"/>
<line class="st25" x1="371.1" y1="91.8" x2="382.5" y2="91.8"/>
<line class="st26" x1="383.6" y1="89.8" x2="383.6" y2="86.7"/>
<line class="st25" x1="381.5" y1="85.7" x2="370.1" y2="85.7"/>
<line class="st27" x1="369.1" y1="83.5" x2="369.1" y2="80.2"/>
<line class="st28" x1="371.4" y1="79.1" x2="384" y2="79.1"/>
<line class="st29" x1="385.2" y1="77" x2="385.2" y2="73.8"/>
<line class="st30" x1="383.1" y1="72.8" x2="362.9" y2="72.8"/>
<path class="st7" d="M361.8,72.8L361.8,72.8 M385.2,72.8L385.2,72.8 M385.2,79.1L385.2,79.1 M369.1,79.1L369.1,79.1 M369.1,85.7
	L369.1,85.7 M383.6,85.7L383.6,85.7 M383.6,91.8L383.6,91.8 M369.1,91.8L369.1,91.8 M369.1,98.4L369.1,98.4 M385.7,98.4L385.7,98.4
	 M385.7,104.8L385.7,104.8 M361.8,104.8L361.8,104.8"/>
<line class="st11" x1="413.5" y1="91.7" x2="399.6" y2="73.6"/>
<line class="st31" x1="396.6" y1="72.8" x2="393.3" y2="72.8"/>
<line class="st5" x1="392.1" y1="74.9" x2="392.1" y2="103.7"/>
<line class="st4" x1="394.5" y1="104.8" x2="398.2" y2="104.8"/>
<line class="st3" x1="399.4" y1="102.5" x2="399.4" y2="85.8"/>
<line class="st32" x1="400.7" y1="86.4" x2="414.2" y2="103.9"/>
<line class="st4" x1="417.2" y1="104.8" x2="420.8" y2="104.8"/>
<line class="st5" x1="422" y1="102.6" x2="422" y2="73.8"/>
<line class="st4" x1="419.6" y1="72.8" x2="416" y2="72.8"/>
<line class="st33" x1="414.8" y1="75.1" x2="414.8" y2="92.2"/>
<path class="st7" d="M414.8,93.4L414.8,93.4 M414.8,72.8L414.8,72.8 M422,72.8L422,72.8 M422,104.8L422,104.8 M414.8,104.8
	L414.8,104.8 M399.4,84.7L399.4,84.7 M399.4,104.8L399.4,104.8 M392.1,104.8L392.1,104.8 M392.1,72.8L392.1,72.8 M398.9,72.8
	L398.9,72.8"/>
<polygon class="st1" points="438,73 438,105.4 443.3,105.4 443.3,92 457.3,92 457.3,87 443.3,87 443.3,78.1 459,78.1 459,73 "/>
<polygon class="st1" points="465.2,73 465.2,105.4 487.9,105.4 487.9,100.2 470.5,100.2 470.5,91.6 485.6,91.6 485.6,86.7 
	470.5,86.7 470.5,78.1 487.3,78.1 487.3,73 "/>
<polygon class="st1" points="494.7,73 494.7,105.4 517.3,105.4 517.3,100.2 500,100.2 500,91.6 515.1,91.6 515.1,86.7 500,86.7 
	500,78.1 516.8,78.1 516.8,73 "/>
<g>
	<path class="st1" d="M533.6,77.3c-1.5,0-2.8,0.3-3.8,1c-1,0.6-1.5,1.6-1.5,2.9s0.5,2.3,1.5,3s3.1,1.4,6.3,2.2
		c3.2,0.8,5.7,1.9,7.3,3.4s2.5,3.6,2.5,6.4s-1,5.1-3.1,6.9s-4.8,2.6-8.2,2.6c-4.9,0-9.3-1.7-13.1-5.2l3.3-4.1
		c3.2,2.8,6.5,4.3,9.9,4.3c1.7,0,3.1-0.4,4.1-1.1c1-0.8,1.5-1.8,1.5-3c0-1.3-0.5-2.2-1.4-2.9c-0.9-0.7-2.6-1.3-4.9-1.9
		s-4.1-1.1-5.3-1.6s-2.3-1.1-3.2-1.9c-1.9-1.5-2.8-3.7-2.8-6.7s1.1-5.3,3.2-6.9c2.1-1.6,4.7-2.4,7.9-2.4c2,0,4,0.3,6,1
		s3.7,1.6,5.1,2.9l-2.8,4.1c-0.9-0.9-2.2-1.6-3.8-2.1C536.8,77.5,535.2,77.3,533.6,77.3"/>
</g>
<polygon class="st0" points="70.7,2.7 70.7,68.2 22.5,2.7 1.9,2.7 1.9,104.4 23.9,104.4 23.9,40.7 70.7,104.4 92.6,104.4 92.6,2.7 
	"/>
<path class="st0" d="M199.6,90.4c-9.9,10-22.2,15.1-36.7,15.1s-26.8-5-36.7-15.1c-9.9-10-14.9-22.5-14.9-37.5
	c0-14.9,5-27.4,14.9-37.5c9.9-10,22.2-15.1,36.7-15.1s26.8,5,36.7,15.1c9.9,10,14.9,22.5,14.9,37.5
	C214.5,67.8,209.5,80.3,199.6,90.4 M192.1,53c0-9.1-2.8-16.8-8.4-23.2c-5.6-6.4-12.5-9.6-20.7-9.6s-15.1,3.2-20.7,9.6
	c-5.6,6.4-8.4,14.1-8.4,23.2s2.8,16.8,8.4,23.1c5.6,6.4,12.5,9.5,20.7,9.5s15.1-3.2,20.7-9.5C189.3,69.8,192.1,62,192.1,53"/>
</svg>
