<?xml version="1.0" encoding="utf-8"?>
<!-- Generator: Adobe Illustrator 21.0.0, SVG Export Plug-In . SVG Version: 6.00 Build 0)  -->
<svg version="1.1" id="Layer_1" xmlns="http://www.w3.org/2000/svg" xmlns:xlink="http://www.w3.org/1999/xlink" x="0px" y="0px"
	 viewBox="0 0 158 158" enable-background="new 0 0 158 158" xml:space="preserve">
<g>
	<path fill="none" d="M102,100.1l15,6.7c3.2,1.4,4.5,4.9,3.1,8c-0.7,1.5-1.9,2.7-3.4,3.2c-0.7,0.3-1.4,0.4-2.1,0.4
		c-0.9,0-1.7-0.2-2.6-0.6l-28.1-12.5c-3.2-1.4-4.5-4.9-3.1-8l12.5-28.1c0.7-1.5,1.9-2.7,3.4-3.3c1.5-0.6,3.1-0.5,4.7,0.2
		c1.5,0.7,2.7,1.9,3.2,3.4c0.6,1.5,0.5,3.1-0.2,4.6L98,88.5l50.9-19.5c0.1,0,0.2-0.1,0.3-0.1c-2.5-17-11-32-23.3-42.9l-54.7,21
		c-1.5,0.6-3.2,0.5-4.7-0.1c-1.5-0.7-2.7-1.9-3.2-3.4c-1.2-3,0.4-6.2,3.7-7.5l47.5-18.2C104,11.5,91.8,8,78.8,8
		C39.5,8,7.5,40,7.5,79.2c0,0.3,0,0.6,0,0.8l44.3-17l-15-6.7c-3.2-1.4-4.5-4.9-3.1-8c0.7-1.5,1.9-2.7,3.4-3.2
		c1.5-0.6,3.1-0.5,4.7,0.2L70,57.8c3.2,1.4,4.5,4.9,3.1,8L60.5,94c-0.6,1.5-1.9,2.7-3.4,3.3c-1.5,0.6-3.1,0.5-4.7-0.2
		c-1.5-0.7-2.7-1.9-3.2-3.4c-0.6-1.5-0.5-3.1,0.2-4.6l6.4-14.3l-47,18c3.3,16.9,12.5,31.7,25.5,42.1l48.3-18.6
		c1.5-0.6,3.2-0.5,4.7,0.1c1.5,0.7,2.7,1.9,3.2,3.4c1.2,3-0.4,6.2-3.7,7.5l-40.3,15.5c9.7,4.9,20.6,7.7,32.2,7.7
		c38.5,0,69.9-30.6,71.2-68.8L102,100.1z"/>
	<path fill="#70B2E3" d="M90.5,119.8c-0.6-1.5-1.7-2.7-3.2-3.4c-1.5-0.7-3.2-0.7-4.7-0.1l-48.3,18.6c3.8,3,7.9,5.7,12.3,7.9
		l40.3-15.5C90.1,126.1,91.7,122.9,90.5,119.8z"/>
	<path fill="#70B2E3" d="M49.4,89.1c-0.7,1.5-0.7,3.2-0.2,4.6c0.6,1.5,1.7,2.7,3.2,3.4c1.5,0.7,3.2,0.7,4.7,0.2
		c1.5-0.6,2.7-1.8,3.4-3.3L73,65.9c1.4-3.2,0.1-6.6-3.1-8L41.8,45.3c-1.5-0.7-3.2-0.7-4.7-0.2c-1.5,0.6-2.7,1.7-3.4,3.2
		c-1.4,3.2-0.1,6.6,3.1,8l15,6.7l-44.3,17c0.1,4.3,0.5,8.6,1.3,12.7l47-18L49.4,89.1z"/>
	<path fill="#70B2E3" d="M98,88.5l6.4-14.4c0.7-1.5,0.7-3.2,0.2-4.6c-0.6-1.5-1.7-2.7-3.2-3.4c-1.5-0.7-3.2-0.7-4.7-0.2
		c-1.5,0.6-2.7,1.8-3.4,3.3L80.8,97.3c-1.4,3.2-0.1,6.6,3.1,8l28.1,12.5c0.8,0.4,1.7,0.6,2.6,0.6c0.7,0,1.4-0.1,2.1-0.4
		c1.5-0.6,2.7-1.7,3.4-3.2c1.4-3.2,0.1-6.6-3.1-8l-15-6.7l48-18.4c0-0.8,0.1-1.6,0.1-2.5c0-3.5-0.3-7-0.8-10.4
		c-0.1,0-0.2,0.1-0.3,0.1L98,88.5z"/>
	<path fill="#70B2E3" d="M63.3,43.4c0.6,1.5,1.7,2.7,3.2,3.4c1.5,0.7,3.2,0.7,4.7,0.1l54.7-21c-3.5-3.1-7.3-5.9-11.4-8.3L67,35.9
		C63.7,37.1,62.1,40.3,63.3,43.4z"/>
	<path fill="#009CDE" d="M78.8,2C36.2,2,1.5,36.6,1.5,79.2c0,42.6,34.7,77.3,77.3,77.3c42.6,0,77.3-34.7,77.3-77.3
		C156,36.6,121.4,2,78.8,2z M78.8,150.5c-11.6,0-22.5-2.8-32.2-7.7c-4.4-2.2-8.5-4.9-12.3-7.9c-13-10.4-22.2-25.2-25.5-42.1
		C8,88.6,7.6,84.4,7.5,80.1c0-0.3,0-0.6,0-0.8C7.5,40,39.5,8,78.8,8c13,0,25.2,3.5,35.7,9.6c4.1,2.4,7.9,5.1,11.4,8.3
		c12.3,10.9,20.8,25.9,23.3,42.9c0.5,3.4,0.8,6.9,0.8,10.4c0,0.8,0,1.6-0.1,2.5C148.6,119.9,117.2,150.5,78.8,150.5z"/>
</g>
</svg>
