<?xml version="1.0" encoding="utf-8"?>
<!-- Generator: Adobe Illustrator 21.0.0, SVG Export Plug-In . SVG Version: 6.00 Build 0)  -->
<svg version="1.1" id="Layer_1" xmlns="http://www.w3.org/2000/svg" xmlns:xlink="http://www.w3.org/1999/xlink" x="0px" y="0px"
	 viewBox="0 0 174 158" enable-background="new 0 0 174 158" xml:space="preserve">
<g>
	<path fill="none" d="M84.3,7.5C45,7.5,13,39.5,13,78.7C13,118,45,150,84.3,150c23.3,0,43.9-11.2,57-28.5H89.7v-49h65.6
		C152,36.1,121.4,7.5,84.3,7.5z"/>
	<path fill="#BFE290" d="M141.2,121.5c-13,17.3-33.7,28.5-57,28.5C45,150,13,118,13,78.7C13,39.5,45,7.5,84.3,7.5
		c37.2,0,67.8,28.6,71,65h6c-3.2-39.7-36.5-71-77-71C41.7,1.5,7,36.1,7,78.7C7,121.3,41.7,156,84.3,156c25.7,0,48.5-12.6,62.6-32
		l-2.5-2.5H141.2z"/>
</g>
<g>
	<path fill="#9ACA58" d="M129.5,94.2c-1,0-1.8,0.4-2.4,1.1c-0.7,0.8-1,1.7-1,2.9c0,1.2,0.3,2.1,1,2.8c0.7,0.7,1.5,1.1,2.4,1.1
		s1.8-0.4,2.5-1.1c0.7-0.7,1.1-1.7,1.1-2.8c0-1.1-0.3-2.1-1-2.9C131.3,94.6,130.5,94.2,129.5,94.2z"/>
	<path fill="#9ACA58" d="M109.2,100.7c0,0.5,0.2,0.9,0.6,1.2c0.4,0.3,0.9,0.4,1.7,0.4c0.7,0,1.4-0.2,1.9-0.6c0.6-0.4,0.8-1,0.8-1.7
		v-0.7h-2.6C110,99.2,109.2,99.7,109.2,100.7z"/>
</g>
<g>
	<polygon fill="none" points="58.5,77.9 62.3,77.9 73.7,53.7 69.9,53.7 	"/>
	<path fill="none" d="M112.3,90.9c-2.5,0-4.7,0.7-6.6,2l1.8,2.6c0.5-0.4,1.2-0.7,2-1c0.8-0.3,1.5-0.4,2.2-0.4c1.6,0,2.5,0.8,2.5,2.3
		v0.1h-3c-1.9,0-3.4,0.4-4.5,1.1c-1.1,0.7-1.6,1.8-1.6,3.3c0,1.5,0.5,2.6,1.6,3.5c1.1,0.9,2.4,1.3,3.9,1.3c1.5,0,2.8-0.6,3.9-1.9
		v1.7h3.8v-9c0-1.9-0.6-3.2-1.7-4.1C115.5,91.3,114.1,90.9,112.3,90.9z"/>
	<polygon fill="none" points="76.5,60.6 85.2,64.5 76.5,68.5 76.5,72.4 89.7,66.4 89.7,62.8 76.5,56.7 	"/>
	<polygon fill="none" points="42.5,66.4 55.7,72.4 55.7,68.5 47,64.5 55.7,60.6 55.7,56.7 42.5,62.8 	"/>
	<path fill="none" d="M147.2,102c-1,0-1.9-0.3-2.7-1c-0.8-0.7-1.2-1.6-1.2-2.8c0-1.2,0.4-2.1,1.2-2.8c0.8-0.7,1.7-1,2.8-1
		c0.7,0,1.3,0.2,2,0.4c0.7,0.3,1.3,0.7,1.7,1.3l2.1-2.7c-0.8-0.8-1.8-1.5-2.8-1.9c-1.1-0.4-2.1-0.6-3.2-0.6c-2.1,0-3.9,0.7-5.5,2
		s-2.3,3.1-2.3,5.3s0.8,3.9,2.3,5.3c1.5,1.3,3.4,2,5.6,2c2.2,0,4.2-1,6.1-2.8l-2.4-2.6C149.8,101.4,148.5,102,147.2,102z"/>
	<path fill="none" d="M130.5,90.9c-1.8,0-3.2,0.6-4.4,1.8v-7h-4.1v19.6h4.1v-1.9c1.1,1.4,2.6,2.1,4.3,2.1c1.7,0,3.3-0.7,4.6-2.1
		c1.4-1.4,2-3.2,2-5.3c0-2.1-0.7-3.8-2-5.2C133.8,91.6,132.3,90.9,130.5,90.9z"/>
	<path fill="#9ACA58" d="M161.2,72.5h-6H107v18H89.7v31h51.5h3.2l2.5,2.5l10.6,10.5v-13h11.3v-49H161.2z M118.3,105.3h-3.8v-1.7
		c-1.1,1.3-2.4,1.9-3.9,1.9c-1.5,0-2.9-0.4-3.9-1.3c-1.1-0.9-1.6-2-1.6-3.5c0-1.5,0.5-2.5,1.6-3.3c1.1-0.7,2.6-1.1,4.5-1.1h3v-0.1
		c0-1.5-0.8-2.3-2.5-2.3c-0.7,0-1.5,0.1-2.2,0.4c-0.8,0.3-1.5,0.6-2,1l-1.8-2.6c1.9-1.4,4.1-2,6.6-2c1.8,0,3.2,0.4,4.3,1.3
		c1.1,0.9,1.7,2.2,1.7,4.1V105.3z M135.1,103.4c-1.4,1.4-2.9,2.1-4.6,2.1c-1.7,0-3.2-0.7-4.3-2.1v1.9h-4.1V85.7h4.1v7
		c1.1-1.2,2.6-1.8,4.4-1.8c1.8,0,3.3,0.7,4.6,2c1.3,1.3,2,3.1,2,5.2C137.1,100.2,136.4,102,135.1,103.4z M147.1,105.5
		c-2.2,0-4-0.7-5.6-2c-1.5-1.3-2.3-3.1-2.3-5.3s0.8-3.9,2.3-5.3s3.3-2,5.5-2c1.1,0,2.1,0.2,3.2,0.6c1.1,0.4,2,1,2.8,1.9l-2.1,2.7
		c-0.5-0.5-1-1-1.7-1.3c-0.7-0.3-1.4-0.4-2-0.4c-1.1,0-2,0.3-2.8,1c-0.8,0.7-1.2,1.6-1.2,2.8c0,1.2,0.4,2.1,1.2,2.8
		c0.8,0.7,1.7,1,2.7,1c1.4,0,2.6-0.7,3.7-2l2.4,2.6C151.4,104.6,149.3,105.5,147.1,105.5z"/>
	<path fill="#FAB161" d="M107,72.5v-31H27.9v49h11.3v13l13-13h37.4H107V72.5z M55.7,60.6L47,64.5l8.7,4v3.9l-13.2-6v-3.6l13.2-6
		V60.6z M62.3,77.9h-3.8l11.4-24.2h3.9L62.3,77.9z M89.7,66.4l-13.2,6v-3.9l8.7-4l-8.7-3.9v-3.9l13.2,6V66.4z"/>
</g>
</svg>
